<svg viewBox="0 0 990.25 294.17" xmlns="http://www.w3.org/2000/svg" width="990" height="294"><g transform="translate(-4.5 -3.06)"><path d="m84 113.62h-46.32v96.38h-33.18v-125h79.5zm50 96.25h-33.36v-125h28.07q28.07-.18 28.26 0 21.69 0 33.91 14.11a46.79 46.79 0 0 1 11.85 32.86 46.47 46.47 0 0 1 -12.22 32.16q-12 13.57-33.54 13.57h-22.97v32.32zm-.55-60.72h23.55a11.78 11.78 0 0 0 10-5.35 22.05 22.05 0 0 0 3.83-12.86 20.87 20.87 0 0 0 -3.64-12.32 11.66 11.66 0 0 0 -10.19-5.36h-23.55v35.9zm419.78 62.17v-125h33.36v95.54h30.81v-95.55h33.36v95.54h30.81v-95.54h33.36v125zm266-64.47-67.08 64.83h-9.85v-125.36h33.36v61.07l66.54-61.61h10.39v125.54h-33.37zm137.77 64.47-27.87-48.22a144.86 144.86 0 0 1 -15.86.54v47.68h-33.36v-125h33.36v48.93q14.77 0 18.59-2 4-2 6.2-7.14 2.19-5.35 5.29-18.21a30 30 0 0 1 14.22-19.29q11.12-6.43 31.9-2.14v22q-12.95-.89-15.5 8.93-6.56 23.39-15.68 33.22 4.71 7.12 17.14 26.38 9.56 14.8 19.32 29.46v4.82h-37.75z" fill="#1e2b73"/><path d="m522 152.82c0 79.75-65.5 144.41-146.29 144.41s-146.27-64.66-146.27-144.41 65.49-144.4 146.29-144.4 146.27 64.65 146.27 144.4z" fill="#f9b31b"/><path d="m506.58 148.57c0 80.36-64.49 145.51-144 145.51s-144-65.14-144-145.51 64.42-145.51 143.96-145.51 144.04 65.15 144.04 145.51z" fill="#ffee24"/><path d="m470.56 145.45c0 57.92-47.86 104.88-106.9 104.88s-106.9-47-106.9-104.88 47.86-104.88 106.9-104.88 106.9 46.95 106.9 104.88z" fill="#f5b123"/><path d="m467 147.34c0 56-45.85 101.42-102.4 101.42s-102.4-45.41-102.4-101.42 45.87-101.41 102.43-101.41 102.37 45.41 102.37 101.42z" fill="#fdce0f"/><path d="m333.26 185.24s22.61 6.3 39.38 5.51c11.55-.54 30.39-5.51 30.39-5.51s-.94 6.34-3.38 9.92c-6 8.82-18 15.82-30.38 16.54-16.81 1-32.63-5.51-32.63-5.51z" fill="#f1373c"/><path d="m373.45 190.75c10.73-4.21 30.38-5.51 30.38-5.51s-.94 6.34-3.38 9.92a37.49 37.49 0 0 1 -28.13 16.54c-13.5 1.1-28.13-3.31-28.13-3.31 1.13-6.61 18-13.23 29.26-17.64z" fill="#ff484d"/><path d="m330.08 129.91a14.81 14.81 0 1 1 -14.8-14.33 14.57 14.57 0 0 1 14.8 14.33z" fill="#1e3040"/><path d="m322.25 123.55a2.69 2.69 0 1 1 -2.69-2.61 2.65 2.65 0 0 1 2.69 2.61z" fill="#e8e8e8"/><path d="m423 129.91a14.81 14.81 0 1 1 -14.81-14.33 14.57 14.57 0 0 1 14.81 14.33z" fill="#1e3040"/><path d="m415.15 123.55a2.69 2.69 0 1 1 -2.69-2.61 2.65 2.65 0 0 1 2.69 2.61z" fill="#e8e8e8"/><path d="m431.79 105.23c0 3.41-7.65-3.36-21.38-3.36s-22.5 6.78-22.5 3.36 8.77-11.08 22.5-11.08 21.38 7.68 21.38 11.08zm-92.9 0c0 3.41-7.65-3.36-21.38-3.36s-22.51 6.78-22.51 3.36 8.78-11.08 22.51-11.08 21.38 7.68 21.38 11.08z" fill="#1e3040"/><path d="m333.26 174.53s26 5.2 42.76 4.41c11.55-.54 27-4.41 27-4.41l2.25 11s-17.64 4.84-29.26 5.51c-16.81 1-42.76-5.51-42.76-5.51z" fill="#fff"/></g></svg>