<svg xmlns="http://www.w3.org/2000/svg" x="0px" y="0px"
width="24" height="24"
viewBox="0 0 172 172"
style=" fill:#000000;"><g fill="none" fill-rule="nonzero" stroke="none" stroke-width="1" stroke-linecap="butt" stroke-linejoin="miter" stroke-miterlimit="10" stroke-dasharray="" stroke-dashoffset="0" font-family="none" font-weight="none" font-size="none" text-anchor="none" style="mix-blend-mode: normal"><path d="M0,172v-172h172v172z" fill="none"></path><g fill="#ffffff"><path d="M147.43457,21.58398c-2.38202,-0.25263 -4.97109,0.11937 -7.57259,1.14779c-3.225,1.2685 -53.75874,22.52595 -100.86523,42.35612l-15.5651,6.55078c-6.02717,2.44383 -9.07031,6.41831 -9.07031,11.77181c0,3.74817 1.5863,8.83214 9.1543,11.82779l26.27311,10.52604c2.27183,6.81551 7.54852,22.64017 8.87435,26.84701c0.78833,2.494 2.77955,8.77693 7.81055,10.2461c1.032,0.35117 2.1089,0.5319 3.2054,0.5319c3.17483,0 5.46078,-1.47756 6.57878,-2.33756l16.69889,-14.12337l20.28223,18.75651c0.78117,0.7955 4.91589,4.8151 10.47006,4.8151c6.93017,0 12.18702,-5.76905 13.28352,-11.35189c0.59483,-3.06017 20.15625,-101.2575 20.15625,-101.24317c1.75583,-7.87617 -1.40119,-11.96195 -3.42936,-13.70345c-1.73792,-1.48708 -3.90281,-2.36489 -6.28483,-2.61751zM142.68945,37.0651c-2.70183,13.545 -17.43034,87.47891 -19.66634,98.13574l-29.64649,-27.4209l-20.11426,17.03484l5.57097,-21.79395c0,0 38.43159,-38.90167 40.74642,-41.16634c1.86333,-1.81317 2.25358,-2.44876 2.25358,-3.07943c0,-0.8385 -0.43157,-1.44173 -1.42774,-1.44173c-0.89583,0 -2.11248,0.85843 -2.75748,1.25977c-8.19399,5.10852 -43.08544,24.98628 -60.25879,34.75554l-24.91536,-9.95215l12.09375,-5.08106c30.8095,-12.97166 85.68041,-36.07599 98.12174,-41.25032z"></path></g></g></svg>