<svg xmlns="http://www.w3.org/2000/svg" x="0px" y="0px"
width="32" height="32"
viewBox="0 0 172 172"
style=" fill:#000000;"><g fill="none" fill-rule="nonzero" stroke="none" stroke-width="1" stroke-linecap="butt" stroke-linejoin="miter" stroke-miterlimit="10" stroke-dasharray="" stroke-dashoffset="0" font-family="none" font-weight="none" font-size="none" text-anchor="none" style="mix-blend-mode: normal"><path d="M0,172v-172h172v172z" fill="none"></path><g fill="#ffffff"><path d="M84.3833,21.5c-10.2125,0 -35.4729,1.0729 -48.9104,13.9729c-9.675,9.1375 -13.4354,23.1146 -13.9729,39.7771c-1.075,26.3375 4.8333,42.9979 14.5083,51.5979c2.15,1.6125 7.5292,5.9188 17.7417,9.1438v13.4375c0,0 -0.0021,5.3708 3.2229,6.4458c0.5375,0 1.0792,0.5354 1.6167,0.5354c3.225,0 5.9062,-3.7646 9.6687,-7.5271c3.225,-3.7625 5.9146,-6.4458 7.5271,-9.1333h7.5271h4.3042c10.2125,0 35.4729,-1.0729 48.9104,-13.9729c9.675,-9.675 13.4375,-23.6563 13.4375,-41.3938c0.5375,-2.6875 0.5354,-5.9083 0.5354,-9.1333c-0.5375,-19.8875 -6.4458,-33.3229 -14.5083,-40.8479c-3.225,-2.6875 -17.2042,-12.9021 -47.3042,-12.9021zM83.3125,31.7146h3.7583h0.5459h0.5354c28.4875,0 39.2375,9.1396 40.3125,10.2146c6.45,5.375 10.2125,17.1979 10.75,32.7854v2.1521c0.5375,3.225 0.5354,5.9041 0.5354,7.5166c-0.5375,16.125 -3.7646,26.8792 -10.2146,33.8667c-11.2875,10.2125 -34.9333,10.75 -41.3833,10.75h-3.7688h-0.5354h-0.5354h-5.375l-8.5979,9.6792l-5.375,5.9104l-1.0813,1.6062c-1.075,1.075 -2.6833,3.2313 -3.7583,3.7688v-1.0813v-23.1062c-10.75,-2.6875 -15.05,-6.4521 -16.125,-7.5271c-7.525,-6.45 -11.825,-22.0375 -10.75,-43v-5.375c1.075,-12.9 4.3042,-21.4979 9.6792,-27.4104c11.2875,-10.2125 34.9333,-10.75 41.3833,-10.75zM82.7771,43.5354c-2.6875,0 -2.6875,3.7688 0,3.7688c19.8875,0 37.0896,13.4333 37.0896,38.6958c0,2.6875 3.7583,2.6875 3.7583,0c0,-27.4125 -18.2729,-43.0021 -40.8479,-42.4646zM61.47656,48.51147c-1.14219,-0.13438 -2.34736,0.12808 -3.42236,0.93433c-5.375,2.6875 -10.7563,8.0709 -9.1438,13.9834c0,0 1.0792,4.8312 6.9917,15.0437c3.225,4.8375 5.9104,9.1417 8.5979,12.3667c2.6875,3.7625 6.9854,8.0604 11.2854,11.2854c8.6,6.9875 22.0438,13.9771 27.9563,15.5896c5.375,1.6125 11.2854,-3.7688 13.9729,-9.1438c1.075,-2.15 0.5333,-4.8333 -1.6167,-6.4458c-3.225,-3.225 -8.5937,-6.9833 -12.3562,-9.1333c-2.6875,-1.6125 -5.9167,-0.5417 -6.9917,1.0708l-2.6875,3.2229c-1.075,1.6125 -3.7583,1.6167 -3.7583,1.6167c-17.7375,-4.8375 -22.5813,-23.1167 -22.5813,-23.1167c0,0 0.0042,-2.1458 1.6167,-3.7583l3.2229,-2.6875c1.6125,-1.075 2.6833,-4.3042 1.0708,-6.9917c-1.075,-1.6125 -2.6812,-4.8333 -4.2937,-6.4458c-1.6125,-2.15 -4.8396,-5.9104 -4.8396,-5.9104c-0.80625,-0.80625 -1.88125,-1.34585 -3.02344,-1.48022zM86.5354,54.2854c-2.6875,-0.5375 -3.2229,3.7688 -0.5354,3.7688c15.05,1.075 23.6542,11.2875 23.1167,24.1875c-0.5375,2.6875 3.7583,2.6875 3.7583,0c0.5375,-15.05 -9.1396,-27.4188 -26.3396,-27.9563zM88.1521,64.5c-2.6875,-0.5375 -2.6875,3.7583 0,3.7583c6.45,0 9.6687,3.7646 9.6687,10.2146c0.5375,2.6875 4.3042,2.6875 4.3042,0c-0.5375,-8.6 -5.3729,-13.9729 -13.9729,-13.9729z"></path></g></g></svg>